# xmcd
#
# Track frame offsets:
#	14550
#	48475
#	77977
#	102877
#	128485
#	149340
#	162535
#	186165
#	215095
#	243047
#	269482
#
# Disc length: 3777 seconds
# Revision: 9
# Processed by: cddbd v1.5.2PL0 Copyright (c) Steve Scherf et al.
# Submitted via: dBpowerAMP V12.0
#
DISCID=ab0dff0b
DTITLE=Maxwell - Embrya
DYEAR=1998
DGENRE=R&B
TTITLE0=Everwanting: To Want You To Want
TTITLE1=I'm You: You Are Me and We Are You (Pt. Me and You)
TTITLE2=Luxury: Cococure
TTITLE3=Drowndeep: Hula
TTITLE4=Matrimony: Maybe You
TTITLE5=Arroz con Pollo
TTITLE6=Know These Things: Shouldn't You
TTITLE7=Submerge: Til We Become the Sun
TTITLE8=Gravity: Pushing to Pull
TTITLE9=Each Hour Each Second Each Minute Each Day: Of My Life
TTITLE10=Embrya
EXTD=
EXTT0=
EXTT1=
EXTT2=
EXTT3=
EXTT4=
EXTT5=
EXTT6=
EXTT7=
EXTT8=
EXTT9=
EXTT10=
PLAYORDER=
